<svg width="25" height="25" viewBox="0 0 25 25" fill="none" xmlns="http://www.w3.org/2000/svg">
<path d="M4.43796 21.8206H20.4293C21.0335 21.8206 21.5229 22.3072 21.5229 22.9081C21.5229 23.5089 21.0335 23.9955 20.4293 23.9955H4.43796C3.8337 23.9955 3.34428 23.5089 3.34428 22.9081C3.34428 22.3072 3.8337 21.8206 4.43796 21.8206Z" fill="#5C5C5C"/>
<path d="M18.2149 19.8833H6.65148C5.35664 19.8833 4.36161 18.7437 4.54274 17.4692L6.08499 6.6234C6.1821 5.93826 6.77172 5.42861 7.46769 5.42861H8.20837V5.32515C8.20837 3.3203 9.57104 1.49631 11.5464 1.09473C14.2618 0.542933 16.658 2.60143 16.658 5.2056V5.42861H17.3987C18.0947 5.42861 18.6843 5.93826 18.7814 6.62263L20.3236 17.4692C20.5048 18.7437 19.5097 19.8833 18.2149 19.8833ZM14.7836 5.2056C14.7836 3.91654 13.7292 2.86813 12.4336 2.86813C11.138 2.86813 10.0828 3.91654 10.0828 5.2056V5.42861H14.7836V5.2056ZM15.3909 7.73772C14.873 7.73772 14.4537 8.15463 14.4537 8.66964C14.4537 9.77706 13.5473 10.6783 12.4336 10.6783C11.3199 10.6783 10.4135 9.77783 10.4135 8.66964C10.4135 8.15463 9.99418 7.73772 9.47624 7.73772C8.9583 7.73772 8.53902 8.15463 8.53902 8.66964C8.53902 10.8048 10.2855 12.5414 12.4336 12.5414C14.5816 12.5414 16.3281 10.8048 16.3281 8.66964C16.3281 8.15463 15.9088 7.73772 15.3909 7.73772Z" fill="#5C5C5C"/>
</svg>
