<svg width="25" height="25" viewBox="0 0 25 25" fill="none" xmlns="http://www.w3.org/2000/svg">
<path d="M3 13.8275V11.1718L5.24314 10.84C5.43116 10.0133 5.75675 9.2391 6.19501 8.54233L4.84359 6.72092L6.72106 4.84353L8.54253 6.19489C9.23932 5.75665 10.0135 5.43108 10.8403 5.24306L11.1721 3H13.8272L14.1597 5.24306C14.9865 5.43108 15.7607 5.75665 16.4568 6.19489L18.2783 4.84353L20.1557 6.72092L18.8043 8.54233C19.2426 9.2391 19.5681 10.0133 19.7562 10.84L22 11.1718V13.8275L19.7569 14.16C19.5688 14.9867 19.2433 15.7609 18.805 16.4577L20.1564 18.2791L18.2789 20.1565L16.4575 18.8051C15.7607 19.2434 14.9865 19.5689 14.1604 19.7569L13.8279 22H11.1728L10.8403 19.7569C10.0135 19.5689 9.23932 19.2434 8.54253 18.8051L6.72106 20.1565L4.84359 18.2791L6.19501 16.4577C5.75675 15.7609 5.43116 14.9867 5.24314 14.16L3 13.8275ZM12.5 15.8086C14.3277 15.8086 15.8091 14.3273 15.8091 12.4997C15.8091 10.672 14.3277 9.19071 12.5 9.19071C10.6723 9.19071 9.19093 10.672 9.19093 12.4997C9.19093 14.3273 10.6723 15.8086 12.5 15.8086Z" fill="#5C5C5C"/>
</svg>
