<svg width="50" height="50" viewBox="0 0 50 50" fill="none" xmlns="http://www.w3.org/2000/svg">
<path d="M42.6709 28.2788C42.6709 28.2788 41.3055 31.7039 34.3457 31.7039H9.77307C8.97761 31.7039 8.33521 31.0573 8.33521 30.2611V26.056C8.33521 24.694 8.51242 23.3381 8.86081 22.0226L8.96352 21.6306C9.19108 20.7738 10.1134 20.299 10.931 20.6364C12.0447 21.0951 13.7524 21.5377 15.9434 21.3295C18.5674 21.079 20.1241 19.329 20.9055 18.1045C21.3002 17.4861 22.1178 17.3124 22.724 17.7226C25.0882 19.329 30.4893 22.7562 34.3478 23.3523C36.1642 23.6332 37.592 23.8332 38.6775 23.9767C40.3872 24.201 41.8049 25.4094 42.3064 27.0663L42.6729 28.2808L42.6709 28.2788Z" stroke="white" stroke-linecap="round" stroke-linejoin="round"/>
<path d="M8.33331 29.3234H34.3459C39.175 29.3234 41.3076 27.6765 42.1595 26.6621" stroke="white" stroke-linecap="round" stroke-linejoin="round"/>
<path d="M8.72998 22.5581C10.4075 23.324 12.9087 24.0474 16.0563 23.7423C22.1702 23.1563 23.7612 18.4116 23.7612 18.4116" stroke="white" stroke-linecap="round" stroke-linejoin="round"/>
<path d="M35.3166 23.4998C35.3166 23.4998 33.7297 24.7223 33.7297 29.3235" stroke="white" stroke-linecap="round" stroke-linejoin="round"/>
<path d="M26.0772 19.8503L24.8629 21.7397" stroke="white" stroke-linecap="round" stroke-linejoin="round"/>
<path d="M28.0788 20.9658L26.8826 22.8208" stroke="white" stroke-linecap="round" stroke-linejoin="round"/>
<path d="M30.1388 21.9822L29.0051 23.7442" stroke="white" stroke-linecap="round" stroke-linejoin="round"/>
<path d="M32.2514 22.8208L31.1519 24.5303" stroke="white" stroke-linecap="round" stroke-linejoin="round"/>
<path d="M18.9905 27.5291H19.3852" stroke="white" stroke-linecap="round" stroke-linejoin="round"/>
<path d="M22.1038 27.5291H22.4985" stroke="white" stroke-linecap="round" stroke-linejoin="round"/>
<path d="M8.33929 25.6762C8.33929 25.6762 11.6218 25.3549 12.9389 29.3236" stroke="white" stroke-linecap="round" stroke-linejoin="round"/>
</svg>
