<svg width="25" height="25" viewBox="0 0 25 25" fill="none" xmlns="http://www.w3.org/2000/svg">
<path d="M3.87909 16.8491H4.9641C5.47103 15.1633 7.52705 13.831 10.2759 13.3557V15.0141C8.55061 15.3554 7.28773 16.0712 6.75169 16.8491H7.42679C7.87551 16.8491 8.23933 17.2123 8.23933 17.6601C8.23933 18.108 7.87551 18.4711 7.42679 18.4711H6.75089C7.42437 19.4492 9.25966 20.3361 11.7207 20.4999V19.8616C11.7207 19.4137 12.0846 19.0506 12.5333 19.0506C12.982 19.0506 13.3458 19.4137 13.3458 19.8616V20.4999C15.8077 20.3361 17.6422 19.4492 18.3157 18.4711H17.6398C17.191 18.4711 16.8272 18.108 16.8272 17.6601C16.8272 17.2123 17.191 16.8491 17.6398 16.8491H18.3149C17.7788 16.0712 16.5159 15.3562 14.7906 15.0141V13.3557C17.5387 13.831 19.5947 15.1633 20.1025 16.8491H21.1875C21.6362 16.8491 22 17.2123 22 17.6601C22 18.108 21.6362 18.4711 21.1875 18.4711H20.1C19.5098 20.4353 16.8046 21.9242 13.3458 22.1276V22.8272C13.3458 23.2751 12.982 23.6382 12.5333 23.6382C12.0846 23.6382 11.7207 23.2751 11.7207 22.8272V22.1276C8.26197 21.9242 5.55673 20.4353 4.96653 18.4711H3.87909C3.43038 18.4711 3.06655 18.108 3.06655 17.6601C3.06655 17.2123 3.43038 16.8491 3.87909 16.8491Z" fill="#5C5C5C"/>
<path d="M13.3458 10.6048V16.7072C13.3458 17.1551 12.982 17.5182 12.5333 17.5182C12.0846 17.5182 11.7208 17.1551 11.7208 16.7072V10.6048C9.70678 10.2239 8.18195 8.4639 8.18195 6.34316C8.18195 3.94482 10.1304 2 12.5333 2C14.9362 2 16.8846 3.94482 16.8846 6.34316C16.8846 8.4639 15.3598 10.2239 13.3458 10.6048Z" fill="#5C5C5C"/>
</svg>
