<svg width="25" height="25" viewBox="0 0 25 25" fill="none" xmlns="http://www.w3.org/2000/svg">
<path d="M21.5481 11.399L18.2328 14.4758C18.0062 14.6829 17.9073 14.9966 17.9691 15.2999L18.8716 19.7614C19.1106 20.9431 17.8661 21.8614 16.8317 21.2652L12.9272 19.0167C12.6614 18.8641 12.3379 18.8641 12.0742 19.0167L8.17174 21.2652C7.13741 21.8614 5.89291 20.9431 6.13192 19.7614L7.03232 15.2957C7.09414 14.9945 6.99318 14.6829 6.76859 14.4758L3.45336 11.399C2.57355 10.5854 3.04951 9.09825 4.23426 8.96438L8.69509 8.45821C8.99798 8.42474 9.25965 8.23022 9.38534 7.94994L11.2397 3.79806C11.7301 2.69787 13.2692 2.69787 13.7596 3.79597L15.6181 7.94994C15.7418 8.23022 16.0055 8.42265 16.3063 8.45821L20.7672 8.96438C21.9498 9.09825 22.4258 10.5854 21.5481 11.399Z" fill="#5C5C5C"/>
<ellipse cx="0.699414" cy="0.699416" rx="0.699414" ry="0.699416" transform="matrix(-1 0 0 1 18.9905 6.45093)" fill="#5C5C5C"/>
<ellipse cx="1.39883" cy="1.39883" rx="1.39883" ry="1.39883" transform="matrix(-1 0 0 1 8.07959 3.93335)" fill="#5C5C5C"/>
</svg>
